<svg width="19" height="16" viewBox="0 0 19 16" fill="none" xmlns="http://www.w3.org/2000/svg">
<path d="M8.43879 1.69237C8.82118 1.29388 8.80813 0.66085 8.40963 0.278462C8.01114 -0.103926 7.37811 -0.0908692 6.99572 0.307625L8.43879 1.69237ZM1.00018 8L0.278645 7.30763C-0.0926375 7.69455 -0.0926375 8.30545 0.278645 8.69237L1.00018 8ZM6.99572 15.6924C7.37811 16.0909 8.01114 16.1039 8.40963 15.7215C8.80813 15.3392 8.82118 14.7061 8.43879 14.3076L6.99572 15.6924ZM2.26706 7.03174C1.71478 7.03174 1.26706 7.47945 1.26706 8.03174C1.26706 8.58402 1.71478 9.03174 2.26706 9.03174V7.03174ZM18.0001 9.03174C18.5524 9.03174 19.0001 8.58402 19.0001 8.03174C19.0001 7.47945 18.5524 7.03174 18.0001 7.03174V9.03174ZM6.99572 0.307625L0.278645 7.30763L1.72172 8.69237L8.43879 1.69237L6.99572 0.307625ZM0.278645 8.69237L6.99572 15.6924L8.43879 14.3076L1.72172 7.30763L0.278645 8.69237ZM2.26706 9.03174H18.0001V7.03174H2.26706V9.03174Z" fill="#14142B"/>
</svg>
