<svg width="25" height="24" viewBox="0 0 25 24" fill="none" xmlns="http://www.w3.org/2000/svg">
<g id="forward-arrow-svg">
<path id="Vector" d="M15.5043 4.30763C15.1219 3.90913 14.4888 3.89607 14.0903 4.27846C13.6918 4.66085 13.6788 5.29388 14.0612 5.69237L15.5043 4.30763ZM21.4998 12L22.2213 12.6924C22.5926 12.3055 22.5926 11.6945 22.2213 11.3076L21.4998 12ZM14.0612 18.3076C13.6788 18.7061 13.6918 19.3391 14.0903 19.7215C14.4888 20.1039 15.1219 20.0909 15.5043 19.6924L14.0612 18.3076ZM20.2329 13.0317C20.7852 13.0317 21.2329 12.584 21.2329 12.0317C21.2329 11.4795 20.7852 11.0317 20.2329 11.0317V13.0317ZM4.49985 11.0317C3.94756 11.0317 3.49985 11.4795 3.49985 12.0317C3.49985 12.584 3.94756 13.0317 4.49985 13.0317V11.0317ZM14.0612 5.69237L20.7783 12.6924L22.2213 11.3076L15.5043 4.30763L14.0612 5.69237ZM20.7783 11.3076L14.0612 18.3076L15.5043 19.6924L22.2213 12.6924L20.7783 11.3076ZM20.2329 11.0317H4.49985V13.0317H20.2329V11.0317Z" fill="#FCFCFC"/>
</g>
</svg>
