<svg width="24" height="24" viewBox="0 0 24 24" fill="none" xmlns="http://www.w3.org/2000/svg">
<path fill-rule="evenodd" clip-rule="evenodd" d="M16.8436 6.54867C15.6045 5.36697 13.951 4.7232 12.2402 4.74966C9.10961 4.74966 6.45079 6.86171 5.50277 9.70571C5.00011 11.1961 5.00011 12.8099 5.50277 14.3003H5.50717C6.45959 17.1399 9.11401 19.252 12.2446 19.252C13.8607 19.252 15.248 18.8386 16.3233 18.1085V18.1056C17.5888 17.2678 18.453 15.9494 18.722 14.4591H12.2402V9.83807H23.559C23.7001 10.6406 23.7663 11.4607 23.7663 12.2764C23.7663 15.9263 22.4619 19.0121 20.1923 21.1021L20.1947 21.1039C18.2061 22.9382 15.4767 24.0008 12.2402 24.0008C7.70302 24.0008 3.55384 21.4434 1.51672 17.3912C-0.185266 14.0005 -0.185262 10.0056 1.51674 6.61484C3.55385 2.55825 7.70302 0.000808666 12.2402 0.000808666C15.2209 -0.034466 18.1002 1.0855 20.2696 3.12262L16.8436 6.54867Z" fill="#1E2028"/>
</svg>
