<svg width="24" height="24" viewBox="0 0 24 24" fill="none" xmlns="http://www.w3.org/2000/svg">
<path d="M1 3C1 1.89543 1.89543 1 3 1H7C8.10457 1 9 1.89543 9 3V7C9 8.10457 8.10457 9 7 9H3C1.89543 9 1 8.10457 1 7V3Z" stroke="#14142B" stroke-width="2"/>
<path d="M15 3C15 1.89543 15.8954 1 17 1H21C22.1046 1 23 1.89543 23 3V7C23 8.10457 22.1046 9 21 9H17C15.8954 9 15 8.10457 15 7V3Z" stroke="#14142B" stroke-width="2"/>
<path d="M1 17C1 15.8954 1.89543 15 3 15H7C8.10457 15 9 15.8954 9 17V21C9 22.1046 8.10457 23 7 23H3C1.89543 23 1 22.1046 1 21V17Z" stroke="#14142B" stroke-width="2"/>
<path d="M15 17C15 15.8954 15.8954 15 17 15H21C22.1046 15 23 15.8954 23 17V21C23 22.1046 22.1046 23 21 23H17C15.8954 23 15 22.1046 15 21V17Z" stroke="#14142B" stroke-width="2"/>
</svg>
