<svg class="w-6 h-6 text-gray-800 dark:text-white" aria-hidden="true" xmlns="http://www.w3.org/2000/svg" fill="none" viewBox="0 0 20 18">
    <path fill="currentColor" d="M13 5.5a.5.5 0 1 1-1 0 .5.5 0 0 1 1 0ZM7.565 7.423 4.5 14h11.518l-2.516-3.71L11 13 7.565 7.423Z"/>
    <path stroke="currentColor" stroke-linecap="round" stroke-linejoin="round" stroke-width="2" d="M18 1H2a1 1 0 0 0-1 1v14a1 1 0 0 0 1 1h16a1 1 0 0 0 1-1V2a1 1 0 0 0-1-1Z"/>
    <path stroke="currentColor" stroke-linecap="round" stroke-linejoin="round" stroke-width="2" d="M13 5.5a.5.5 0 1 1-1 0 .5.5 0 0 1 1 0ZM7.565 7.423 4.5 14h11.518l-2.516-3.71L11 13 7.565 7.423Z"/>
  </svg>