<svg width="24" height="24" viewBox="0 0 24 24" fill="none" xmlns="http://www.w3.org/2000/svg">
<path d="M17.0711 19.0708C17.4616 18.6803 17.4616 18.0471 17.0711 17.6566C16.6805 17.2661 16.0474 17.2661 15.6569 17.6566L17.0711 19.0708ZM15.6569 6.3429C16.0474 6.73343 16.6805 6.73343 17.0711 6.3429C17.4616 5.95238 17.4616 5.31921 17.0711 4.92869L15.6569 6.3429ZM20.7474 8.33564C20.3805 7.92285 19.7484 7.88567 19.3357 8.25259C18.9229 8.61951 18.8857 9.25158 19.2526 9.66436L20.7474 8.33564ZM22.6667 12L23.4141 12.6644C23.7509 12.2855 23.7509 11.7145 23.4141 11.3356L22.6667 12ZM19.2526 14.3356C18.8857 14.7484 18.9229 15.3805 19.3357 15.7474C19.7484 16.1143 20.3805 16.0771 20.7474 15.6644L19.2526 14.3356ZM22.5 13C23.0523 13 23.5 12.5523 23.5 12C23.5 11.4477 23.0523 11 22.5 11V13ZM10 11C9.44773 11 9.00002 11.4477 9.00002 12C9.00002 12.5523 9.44773 13 10 13V11ZM2.92893 4.92869C-0.976311 8.83393 -0.976311 15.1656 2.92893 19.0708L4.34315 17.6566C1.21895 14.5324 1.21895 9.4671 4.34315 6.3429L2.92893 4.92869ZM2.92893 19.0708C6.83418 22.9761 13.1658 22.9761 17.0711 19.0708L15.6569 17.6566C12.5327 20.7808 7.46734 20.7808 4.34315 17.6566L2.92893 19.0708ZM17.0711 4.92869C13.1658 1.02345 6.83418 1.02345 2.92893 4.92869L4.34315 6.3429C7.46734 3.21871 12.5327 3.21871 15.6569 6.3429L17.0711 4.92869ZM19.2526 9.66436L21.9193 12.6644L23.4141 11.3356L20.7474 8.33564L19.2526 9.66436ZM21.9193 11.3356L19.2526 14.3356L20.7474 15.6644L23.4141 12.6644L21.9193 11.3356ZM22.5 11H10V13H22.5V11Z" fill="#14142B"/>
</svg>
