<svg width="24" height="24" viewBox="0 0 24 24" fill="none" xmlns="http://www.w3.org/2000/svg">
<path d="M7.05956 16.7562L7.05864 16.7552C5.23821 14.9412 3.65073 12.9499 2.52271 10.9779C1.38972 8.99718 0.75 7.08817 0.75 5.42372C0.75 3.97703 1.23231 2.70085 2.31844 1.65954L2.31844 1.65955L2.3205 1.65756C2.96927 1.0308 3.66454 0.75 4.27999 0.75C4.75802 0.75 5.15081 0.923731 5.44508 1.32514L8.20323 5.21208C8.20357 5.21255 8.2039 5.21303 8.20423 5.2135C8.59948 5.77673 8.70968 6.12038 8.70968 6.34909C8.70968 6.6253 8.55598 6.95092 8.00724 7.52501L7.09995 8.45782C6.79938 8.76083 6.69179 9.12808 6.69179 9.45938C6.69179 9.82545 6.83287 10.1354 6.89652 10.2753L6.90039 10.2838L6.90813 10.3009L6.91671 10.3175C7.16222 10.7931 7.60232 11.3852 8.11066 11.9913C8.62861 12.6088 9.25125 13.2805 9.89332 13.9226L9.89602 13.9252C11.1649 15.1813 12.5974 16.4255 13.503 16.9075L13.5114 16.912L13.5199 16.9163C13.6812 16.9969 14.0005 17.1368 14.3695 17.1368C14.7248 17.1368 15.0974 17.001 15.3859 16.7138C15.3866 16.7131 15.3874 16.7123 15.3882 16.7115L16.2949 15.8177C16.2952 15.8173 16.2955 15.817 16.2959 15.8167C16.8562 15.2688 17.1979 15.119 17.467 15.119C17.7059 15.119 18.0533 15.2258 18.607 15.6018L22.5413 18.3954C22.5421 18.396 22.5429 18.3966 22.5437 18.3972C22.9236 18.6731 23.0791 19.0472 23.0791 19.4843C23.0791 20.1169 22.7671 20.8322 22.1675 21.5003C21.1501 22.6174 19.9049 23.1169 18.4438 23.1169C16.7816 23.1169 14.8639 22.4661 12.8701 21.3194C10.8857 20.1783 8.8808 18.5773 7.05956 16.7562Z" stroke="#1E2028" stroke-width="1.5"/>
</svg>
