<svg width="24" height="24" viewBox="0 0 24 24" fill="none" xmlns="http://www.w3.org/2000/svg">
<path d="M13 20V18M13 20H1V18C1 14.6863 3.68629 12 7 12C10.3137 12 13 14.6863 13 18M13 20H22V19.5C22 16.4624 19.5376 14 16.5 14C14.9435 14 13.538 14.6466 12.5374 15.6858C12.8354 16.3979 13 17.1797 13 18M10 6C10 7.65685 8.65685 9 7 9C5.34315 9 4 7.65685 4 6C4 4.34315 5.34315 3 7 3C8.65685 3 10 4.34315 10 6ZM19 8.5C19 9.88071 17.8807 11 16.5 11C15.1193 11 14 9.88071 14 8.5C14 7.11929 15.1193 6 16.5 6C17.8807 6 19 7.11929 19 8.5Z" stroke="#14142B" stroke-width="2"/>
</svg>
