<svg width="24" height="24" viewBox="0 0 24 24" fill="none" xmlns="http://www.w3.org/2000/svg">
<g>
<path class="view-svg" d="M1.33497 13.2561C0.888345 12.4782 0.888342 11.522 1.33497 10.7441C3.68496 6.65097 7.44378 4 11.6798 4C15.9158 4 19.6746 6.65094 22.0246 10.744C22.4712 11.5219 22.4712 12.4781 22.0246 13.256C19.6746 17.3491 15.9158 20 11.6798 20C7.44377 20 3.68497 17.3491 1.33497 13.2561Z" stroke="#14142B" stroke-width="2"/>
<path class="view-svg" d="M14.6797 12C14.6797 13.6569 13.3365 15 11.6797 15C10.0228 15 8.67969 13.6569 8.67969 12C8.67969 10.3431 10.0228 9 11.6797 9C13.3365 9 14.6797 10.3431 14.6797 12Z" stroke="#14142B" stroke-width="2"/>
</g>
</svg>
