<svg width="24" height="24" viewBox="0 0 24 24" fill="none" xmlns="http://www.w3.org/2000/svg">
<path d="M4.7652 20.3217C4.39059 20.7275 4.4159 21.3602 4.82172 21.7348C5.22754 22.1094 5.8602 22.0841 6.2348 21.6783L4.7652 20.3217ZM16.2221 9.3844L16.9569 10.0627L16.9569 10.0627L16.2221 9.3844ZM18.9582 9.19305L19.5914 8.41909L19.5914 8.41909L18.9582 9.19305ZM22.3668 13.274C22.7942 13.6237 23.4242 13.5607 23.774 13.1332C24.1237 12.7058 24.0607 12.0758 23.6332 11.726L22.3668 13.274ZM3.5 13C3.5 13.5523 3.94772 14 4.5 14C5.05228 14 5.5 13.5523 5.5 13H3.5ZM11.5 13C11.5 13.5523 11.9477 14 12.5 14C13.0523 14 13.5 13.5523 13.5 13H11.5ZM3 4H21V2H3V4ZM22 5V19H24V5H22ZM21 20H3V22H21V20ZM2 19V5H0V19H2ZM3 20C2.44772 20 2 19.5523 2 19H0C0 20.6569 1.34314 22 3 22V20ZM22 19C22 19.5523 21.5523 20 21 20V22C22.6569 22 24 20.6569 24 19H22ZM21 4C21.5523 4 22 4.44772 22 5H24C24 3.34315 22.6569 2 21 2V4ZM3 2C1.34315 2 0 3.34315 0 5H2C2 4.44772 2.44772 4 3 4V2ZM6.2348 21.6783L16.9569 10.0627L15.4873 8.70612L4.7652 20.3217L6.2348 21.6783ZM18.3249 9.96701L22.3668 13.274L23.6332 11.726L19.5914 8.41909L18.3249 9.96701ZM16.9569 10.0627C17.3158 9.67389 17.9154 9.63195 18.3249 9.96701L19.5914 8.41909C18.3629 7.41392 16.564 7.53973 15.4873 8.70612L16.9569 10.0627ZM0.292893 10.7071L8.04289 18.4571L9.45711 17.0429L1.70711 9.29289L0.292893 10.7071ZM5.5 13C5.5 13.0142 5.50846 12.8888 5.66543 12.6344C5.80866 12.4022 6.03205 12.1349 6.3251 11.8819C6.91906 11.3691 7.69587 11 8.5 11V9C7.09499 9 5.8718 9.63094 5.01804 10.3681C4.58724 10.7401 4.22484 11.1603 3.96325 11.5844C3.71539 11.9862 3.5 12.4858 3.5 13H5.5ZM8.5 11C9.30413 11 10.0809 11.3691 10.6749 11.8819C10.968 12.1349 11.1913 12.4022 11.3346 12.6344C11.4915 12.8888 11.5 13.0142 11.5 13H13.5C13.5 12.4858 13.2846 11.9862 13.0368 11.5844C12.7752 11.1603 12.4128 10.7401 11.982 10.3681C11.1282 9.63094 9.90501 9 8.5 9V11Z" fill="#FCFCFC"/>
</svg>
